<svg width="31" height="31" viewBox="0 0 31 31" fill="none" xmlns="http://www.w3.org/2000/svg">
<path d="M17.1703 30.7062H10.5037V10.7062H17.1703V14.0395C18.5914 12.2316 20.7464 11.1538 23.0453 11.1012C27.1797 11.1241 30.5157 14.4885 30.5037 18.6228V30.7062H23.837V19.4562C23.5704 17.5939 21.9733 16.2121 20.092 16.2162C19.2691 16.2422 18.4924 16.6025 17.9411 17.2139C17.3897 17.8253 17.1114 18.635 17.1703 19.4562V30.7062ZM7.17033 30.7062H0.503662V10.7062H7.17033V30.7062ZM3.837 7.37284C1.99605 7.37284 0.503662 5.88046 0.503662 4.03951C0.503662 2.19856 1.99605 0.706177 3.837 0.706177C5.67794 0.706177 7.17033 2.19856 7.17033 4.03951C7.17033 4.92356 6.81914 5.77141 6.19402 6.39653C5.5689 7.02165 4.72105 7.37284 3.837 7.37284Z" fill="#E6EAEE"/>
</svg>
