<svg width="25" height="34" viewBox="0 0 25 34" fill="none" xmlns="http://www.w3.org/2000/svg">
<path d="M7.412 33.373C4.63714 33.3945 2.1515 31.6605 1.21367 29.0488C0.275846 26.4372 1.09058 23.518 3.24533 21.7695C1.717 20.5325 0.829042 18.6715 0.829042 16.7053C0.829042 14.7392 1.717 12.8781 3.24533 11.6412C1.08989 9.89323 0.274667 6.97388 1.21267 4.3621C2.15067 1.75033 4.63698 0.0167003 7.412 0.0392805H17.5953C20.3703 0.0167003 22.8567 1.75033 23.7947 4.3621C24.7327 6.97388 23.9174 9.89323 21.762 11.6412C23.9167 13.3897 24.7315 16.3088 23.7937 18.9205C22.8558 21.5322 20.3702 23.2662 17.5953 23.2445C16.3136 23.2461 15.0595 22.873 13.987 22.1712V26.8378C13.9714 30.4562 11.0303 33.3793 7.412 33.373ZM7.37533 23.2462C5.40122 23.2773 3.82316 24.8974 3.84386 26.8717C3.86456 28.8459 5.47626 30.4326 7.45059 30.4224C9.42491 30.4121 11.0201 28.8089 11.0203 26.8345V23.2462H7.37366H7.37533ZM17.597 13.1178C15.6176 13.1279 14.0203 14.739 14.027 16.7183C14.0337 18.6977 15.642 20.2978 17.6214 20.2945C19.6008 20.2911 21.2037 18.6856 21.2037 16.7062C21.1963 14.7196 19.5819 13.1141 17.5953 13.1178H17.597ZM7.41366 13.1178C6.13167 13.111 4.94342 13.7886 4.29649 14.8954C3.64957 16.0022 3.64226 17.3701 4.27732 18.4837C4.91239 19.5974 6.09334 20.2877 7.37533 20.2945H11.0203V13.1178H7.41366ZM13.987 2.9895V10.1679H17.5937C19.5228 10.1768 21.1145 8.6602 21.1987 6.73284V7.45784V6.57784C21.1904 4.59363 19.5796 2.9895 17.5953 2.9895H13.987ZM7.41033 2.9895C6.12834 2.9895 4.94374 3.67343 4.30274 4.78367C3.66175 5.8939 3.66175 7.26177 4.30274 8.372C4.94374 9.48224 6.12834 10.1662 7.41033 10.1662H11.0203V2.9895H7.41033Z" fill="#E6EAEE"/>
</svg>
