<svg width="31" height="31" viewBox="0 0 31 31" fill="none" xmlns="http://www.w3.org/2000/svg">
<path d="M15.507 30.7745C11.407 30.7745 10.9237 30.7528 9.32366 30.6828C8.07595 30.6418 6.84439 30.3881 5.682 29.9328C3.67085 29.1501 2.08056 27.5593 1.29866 25.5478C0.86084 24.3812 0.624693 23.1486 0.600329 21.9028C0.506996 20.3061 0.506996 19.7828 0.506996 15.7145C0.506996 11.6028 0.528663 11.1228 0.600329 9.53114C0.625226 8.28701 0.861365 7.05616 1.29866 5.89114C2.07971 3.87703 3.67258 2.28476 5.687 1.50448C6.8514 1.06481 8.08257 0.828051 9.327 0.804478C10.9187 0.714478 11.442 0.714478 15.507 0.714478C19.6403 0.714478 20.1153 0.736144 21.6903 0.804478C22.938 0.828255 24.1724 1.06499 25.3403 1.50448C27.3542 2.28565 28.9467 3.8776 29.7287 5.89114C30.1739 7.07313 30.4113 8.32323 30.4303 9.58614C30.5237 11.1828 30.5237 11.7045 30.5237 15.7711C30.5237 19.8378 30.5003 20.3711 30.4303 21.9495C30.4055 23.1965 30.1688 24.4302 29.7303 25.5978C28.9464 27.6107 27.3538 29.2021 25.3403 29.9845C24.1741 30.4215 22.9422 30.6576 21.697 30.6828C20.1053 30.7745 19.5837 30.7745 15.507 30.7745ZM15.4503 3.35281C11.3737 3.35281 10.9503 3.37281 9.35866 3.44448C8.40864 3.45706 7.46779 3.63238 6.577 3.96281C5.26158 4.46616 4.22071 5.5028 3.712 6.81614C3.37902 7.71664 3.20368 8.66778 3.19366 9.62781C3.10533 11.2428 3.10533 11.6661 3.10533 15.7145C3.10533 19.7145 3.12033 20.1995 3.19366 21.8045C3.20858 22.7548 3.38382 23.6958 3.712 24.5878C4.22146 25.9003 5.26215 26.9361 6.577 27.4395C7.46719 27.7721 8.40841 27.9475 9.35866 27.9578C10.972 28.0511 11.397 28.0511 15.4503 28.0511C19.5387 28.0511 19.962 28.0311 21.5403 27.9578C22.491 27.9462 23.4326 27.7709 24.3237 27.4395C25.6311 26.9318 26.6652 25.8983 27.1737 24.5911C27.506 23.6899 27.6813 22.7383 27.692 21.7778H27.7103C27.782 20.1845 27.782 19.7595 27.782 15.6878C27.782 11.6161 27.7637 11.1878 27.692 9.59614C27.677 8.6469 27.5018 7.707 27.1737 6.81614C26.6664 5.5071 25.6321 4.47163 24.3237 3.96281C23.4327 3.63071 22.4911 3.45535 21.5403 3.44448C19.9287 3.35281 19.507 3.35281 15.4503 3.35281ZM15.507 23.4128C12.3903 23.4148 9.57936 21.539 8.3851 18.6602C7.19084 15.7814 7.84851 12.4667 10.0514 10.2619C12.2543 8.05713 15.5684 7.3966 18.4483 8.58836C21.3281 9.78013 23.2063 12.5895 23.207 15.7061C23.2024 19.9579 19.7588 23.4045 15.507 23.4128ZM15.507 10.7028C12.7456 10.7028 10.507 12.9414 10.507 15.7028C10.507 18.4642 12.7456 20.7028 15.507 20.7028C18.2684 20.7028 20.507 18.4642 20.507 15.7028C20.5006 12.944 18.2658 10.7092 15.507 10.7028ZM23.507 9.51448C22.516 9.5108 21.7152 8.70546 21.717 7.71449C21.7188 6.72353 22.5227 5.92116 23.5137 5.92116C24.5046 5.92116 25.3085 6.72351 25.3103 7.71448C25.3108 8.19258 25.1208 8.65118 24.7824 8.98894C24.4441 9.3267 23.9851 9.51581 23.507 9.51448Z" fill="#E6EAEE"/>
</svg>
