<svg width="35" height="24" viewBox="0 0 35 24" fill="none" xmlns="http://www.w3.org/2000/svg">
<path d="M17.5137 23.3929H17.4803C17.377 23.3929 7.03866 23.3729 4.43033 22.6645C2.99603 22.2782 1.87591 21.1574 1.49033 19.7229C1.02129 17.0768 0.794799 14.3935 0.813664 11.7062C0.801546 9.01457 1.03417 6.3274 1.50866 3.67788C1.90484 2.24207 3.02005 1.11613 4.452 0.706217C6.98866 0.0395508 17.042 0.0395508 17.4687 0.0395508H17.5037C17.6087 0.0395508 27.9737 0.0595508 30.5553 0.767884C31.9866 1.15623 33.1045 2.27471 33.492 3.70622C33.976 6.36212 34.2031 9.05845 34.1703 11.7579C34.182 14.4463 33.9488 17.1301 33.4737 19.7762C33.0831 21.2089 31.9623 22.3272 30.5287 22.7146C27.9953 23.3862 17.9403 23.3929 17.5137 23.3929ZM14.1803 6.71455L14.172 16.7146L22.8587 11.7146L14.1803 6.71455Z" fill="#E6EAEE"/>
</svg>
